#define xchattext_width 100
#define xchattext_height 25
static unsigned char xchattext_bits[] = {
  0x00, 0x00, 0x00, 0x00, 0x00, 0x00, 0x00, 0x00, 0x00, 0x00, 0x00, 0x00,
  0x00, 0x00, 0x00, 0x00, 0x00, 0x00, 0x00, 0x00, 0x00, 0x00, 0x00, 0x00,
  0x00, 0x00, 0x3c, 0x00, 0x70, 0x00, 0x00, 0x00, 0x00, 0x10, 0x00, 0x02,
  0x00, 0x00, 0x00, 0x7c, 0x00, 0x78, 0x00, 0x02, 0x00, 0x00, 0x10, 0x00,
  0x02, 0x00, 0x00, 0x00, 0xfc, 0x00, 0x7c, 0x00, 0x02, 0x00, 0x00, 0x20,
  0x00, 0x02, 0x00, 0x00, 0x00, 0xf8, 0x00, 0x3e, 0x00, 0x02, 0x00, 0x00,
  0x20, 0x00, 0x02, 0x00, 0x00, 0x00, 0xf0, 0x01, 0x1f, 0x00, 0x02, 0x00,
  0x00, 0x40, 0x00, 0x02, 0x00, 0x00, 0x00, 0xe0, 0x83, 0x0f, 0x00, 0x01,
  0x00, 0x00, 0x40, 0x00, 0x02, 0x00, 0x00, 0x00, 0xc0, 0xc7, 0x0f, 0x00,
  0x01, 0x00, 0x00, 0x40, 0x00, 0x02, 0x00, 0x02, 0x00, 0xc0, 0xef, 0x07,
  0x00, 0x01, 0x00, 0x00, 0x40, 0x00, 0x02, 0x00, 0x02, 0x00, 0x80, 0xff,
  0x03, 0x00, 0x01, 0x00, 0x00, 0xfe, 0x0f, 0x02, 0x00, 0x02, 0x00, 0x00,
  0xff, 0x01, 0x10, 0x01, 0x00, 0x00, 0x40, 0x80, 0xff, 0x01, 0x04, 0x00,
  0x00, 0xfe, 0x00, 0x1f, 0x01, 0x00, 0x00, 0xc0, 0x00, 0x02, 0x00, 0xfc,
  0x01, 0x00, 0xff, 0x80, 0x01, 0x01, 0x00, 0x00, 0x80, 0x00, 0x04, 0x00,
  0x0c, 0x06, 0x80, 0xff, 0x40, 0x00, 0x01, 0x00, 0x00, 0x80, 0x00, 0x04,
  0x70, 0x04, 0x00, 0xc0, 0xff, 0x61, 0x00, 0xfd, 0x03, 0x00, 0x80, 0x00,
  0x04, 0x58, 0x04, 0x00, 0xc0, 0xe7, 0x23, 0x00, 0x05, 0xf2, 0x0f, 0x80,
  0x00, 0x04, 0x7e, 0x04, 0x00, 0xe0, 0xe3, 0x27, 0x00, 0x07, 0x12, 0x18,
  0x80, 0x30, 0x08, 0x08, 0x04, 0x00, 0xf0, 0xc1, 0xef, 0x00, 0x02, 0x12,
  0x18, 0x80, 0x1f, 0x08, 0x18, 0x04, 0x00, 0xf8, 0x80, 0x9f, 0x83, 0x02,
  0x12, 0x18, 0x80, 0x01, 0x08, 0x71, 0x04, 0x00, 0x7c, 0x00, 0x1f, 0xfe,
  0x02, 0xf2, 0xfb, 0x86, 0x01, 0x88, 0x01, 0x04, 0x00, 0x3c, 0x00, 0x1e,
  0x00, 0x00, 0x00, 0x06, 0x03, 0x01, 0xf0, 0x00, 0x04, 0x00, 0x3c, 0x00,
  0x1c, 0x00, 0x00, 0x00, 0x00, 0x00, 0x00, 0x30, 0x00, 0x00, 0x00, 0x00,
  0x00, 0x00, 0x00, 0x00, 0x00, 0x00, 0x00, 0x00, 0x00, 0x00, 0x00, 0x00,
  0x00, 0x00, 0x00, 0x00, 0x00, 0x00, 0x00, 0x00, 0x00, 0x00, 0x00, 0x00,
  0x00, };
